# xmcd CD database file
#
# Track frame offsets:
#	150
#	17098
#	32137
#	52941
#	71392
#	89337
#	111060
#	123193
#	139238
#	159718
#	180476
#	200763
#
# Disc length: 2871 seconds
#
# Revision: 0
# Processed by: cddbd v1.5.2PL0 Copyright (c) Steve Scherf et al.
# Submitted via: cdripper 1.0.8
#
DISCID=9f0b350c
DTITLE=Michael Powers - Prodigal Son
DYEAR=2006
DGENRE=Blues
TTITLE0=Goin' Down
TTITLE1=It's A Bloody
TTITLE2=Prodigal Son
TTITLE3=White Lightning
TTITLE4=Wild Side
TTITLE5=Every Grain Of Sand
TTITLE6=Lay The Hooch
TTITLE7=Oh John
TTITLE8=Signed D.C.
TTITLE9=Compassion
TTITLE10=You Got To Go Down
TTITLE11=Train Kept A Rollin'
EXTD=YEAR: 2006
EXTT0=
EXTT1=
EXTT2=
EXTT3=
EXTT4=
EXTT5=
EXTT6=
EXTT7=
EXTT8=
EXTT9=
EXTT10=
EXTT11=
PLAYORDER=
